<?xml version="1.0" encoding="utf-8"?>
<!-- Svg Vector Icons : http://www.onlinewebfonts.com/icon -->
<!DOCTYPE svg PUBLIC "-//W3C//DTD SVG 1.1//EN" "http://www.w3.org/Graphics/SVG/1.1/DTD/svg11.dtd">
<svg version="1.1" xmlns="http://www.w3.org/2000/svg" xmlns:xlink="http://www.w3.org/1999/xlink" x="0px" y="0px" viewBox="0 0 256 256" enable-background="new 0 0 256 256" xml:space="preserve">
<metadata> Svg Vector Icons : http://www.onlinewebfonts.com/icon </metadata>
<g><g><g><path fill="#000000" d="M91.4,31.9C71.3,44,54.8,54,54.8,54.1s16.5,10.2,36.7,22.3l36.7,22V83.6V68.8l4.9,0.3c29.4,1.8,55.5,21.8,65,49.7c3.1,9,3.7,13.3,3.7,24c0,8.1-0.1,10.2-1.1,14.3c-6.4,30-28.3,51.8-58.2,58.2c-4.2,0.9-6.2,1.1-14.3,1.1c-10.7,0-15.1-0.7-24-3.7c-27.9-9.5-47.9-35.6-49.7-65l-0.3-4.9H39.4H24.6l0.3,4.9c0.8,13.1,3.6,24.7,8.4,35.9c12.9,30,39.6,52.4,71.5,59.8c14.8,3.4,31.9,3.4,46.7,0c35.3-8.2,63.9-34.6,74.9-69c3.6-11,4.8-19.6,4.8-31.7s-1.3-20.6-4.8-31.7c-12-37.5-44.5-64.9-83.5-70.5c-2.7-0.4-7.1-0.8-9.8-1l-5-0.3l-0.1-14.6L128,10L91.4,31.9z"/></g></g></g>
</svg>